<?xml version="1.0" encoding="UTF-8"?>
<svg width="24px" height="24px" viewBox="0 0 24 24" version="1.1" xmlns="http://www.w3.org/2000/svg" xmlns:xlink="http://www.w3.org/1999/xlink">
    <!-- Generator: Sketch 59.1 (86144) - https://sketch.com -->
    <title>icon-list</title>
    <desc>Created with Sketch.</desc>
    <g id="Layouts" stroke="none" stroke-width="1" fill="none" fill-rule="evenodd">
        <g id="Job" transform="translate(-120.000000, -594.000000)">
            <g id="List" transform="translate(120.000000, 594.000000)">
                <g id="icon-list">
                    <circle id="Oval" fill="#ebf1fa" cx="12" cy="12" r="12"></circle>
                    <path d="M10.6911086,15.0534035 C10.4922712,15.0538062 10.3014608,14.9749991 10.1608586,14.8344019 L6.97935865,11.6521519 C6.78426265,11.463983 6.70587696,11.185188 6.77432868,10.9229203 C6.84278041,10.6606526 7.04741707,10.4557262 7.30958772,10.3869036 C7.57175836,10.318081 7.85066394,10.3960723 8.03910865,10.5909019 L10.6903586,13.2421519 L15.4641086,8.46990195 C15.7569576,8.17684586 16.2319275,8.17667797 16.5249836,8.46952695 C16.8180397,8.76237594 16.8182076,9.23734585 16.5253586,9.53040195 L11.2213586,14.8344019 C11.0807565,14.9749991 10.8899461,15.0538062 10.6911086,15.0534035 Z" id="Path" fill="#303776"></path>
                </g>
            </g>
        </g>
    </g>
</svg>
