<?xml version="1.0" encoding="UTF-8"?>
<svg width="16px" height="16px" viewBox="0 0 16 16" version="1.1" xmlns="http://www.w3.org/2000/svg" xmlns:xlink="http://www.w3.org/1999/xlink">
    <!-- Generator: Sketch 59.1 (86144) - https://sketch.com -->
    <title>icon/instagram</title>
    <desc>Created with Sketch.</desc>
    <g id="icon/instagram" stroke="none" stroke-width="1" fill="none" fill-rule="evenodd">
        <g fill="#222325" fill-rule="nonzero" id="Combined-Shape">
            <path d="M11.2136,7.28306304e-14 C13.8401831,0.00264506344 15.9689133,2.1310174 15.972,4.7576 L15.972,4.7576 L15.972,11.2136 C15.9693549,13.8401831 13.8409826,15.9689133 11.2144,15.972 L11.2144,15.972 L4.7584,15.972 C2.13181692,15.9693549 0.00308669149,13.8409826 7.46069873e-14,11.2144 L7.46069873e-14,11.2144 L7.46069873e-14,4.7584 C0.00264506344,2.13181692 2.1310174,0.00308669149 4.7576,7.28306304e-14 L4.7576,7.28306304e-14 Z M11.2144,1.6064 L4.7584,1.6064 C3.01791084,1.6064 1.60684175,3.0171109 1.6064,4.7576 L1.6064,4.7576 L1.6064,11.2136 C1.6064,12.9540892 3.0171109,14.3651583 4.7576,14.3656 L4.7576,14.3656 L11.2136,14.3656 C12.0495624,14.3656 12.8512859,14.0335152 13.4424006,13.4424006 C14.0335152,12.8512859 14.3656,12.0495624 14.3656,11.2136 L14.3656,11.2136 L14.3656,4.7584 C14.3656,3.01791084 12.9548891,1.60684175 11.2144,1.6064 L11.2144,1.6064 Z M7.9856,3.8552 C10.2657909,3.85820249 12.1140727,5.70541072 12.1176,7.9856 C12.1149549,10.2661022 10.2669022,12.1141549 7.9864,12.1168 C5.7062102,12.1137142 3.85864417,10.2657904 3.856,7.9856 C3.85908373,5.70603384 5.70603448,3.85872529 7.9856,3.8552 L7.9856,3.8552 Z M7.9856,5.4624 C6.59163329,5.4624 5.4616,6.59243329 5.4616,7.9864 C5.4616,9.38036671 6.59163329,10.5104 7.9856,10.5104 C9.37956671,10.5104 10.5096,9.38036671 10.5096,7.9864 C10.5096,6.59243329 9.37956671,5.4624 7.9856,5.4624 Z M12.1248,2.8968 C12.671341,2.8968 13.1144,3.33985901 13.1144,3.8864 C13.1144,4.43294099 12.671341,4.876 12.1248,4.876 C11.578259,4.876 11.1352,4.43294099 11.1352,3.8864 C11.1352,3.33985901 11.578259,2.8968 12.1248,2.8968 Z"></path>
        </g>
    </g>
</svg>