<?xml version="1.0" encoding="UTF-8"?>
<svg width="16px" height="16px" viewBox="0 0 16 16" version="1.1" xmlns="http://www.w3.org/2000/svg" xmlns:xlink="http://www.w3.org/1999/xlink">
    <!-- Generator: Sketch 59.1 (86144) - https://sketch.com -->
    <title>icon/linkedin</title>
    <desc>Created with Sketch.</desc>
    <g id="icon/linkedin" stroke="none" stroke-width="1" fill="none" fill-rule="evenodd">
        <g id="linkedin" fill="#222325" fill-rule="nonzero">
            <path d="M15.9672,9.3752 L15.9672,15.2784 L12.5448,15.2784 L12.5448,9.7704 C12.5448,8.3864 12.0496,7.4424 10.8112,7.4424 C9.8656,7.4424 9.3024,8.0792 9.0552,8.6944 C8.9648,8.9144 8.9416,9.2208 8.9416,9.5288 L8.9416,15.2784 L5.5176,15.2784 C5.5176,15.2784 5.564,5.9504 5.5176,4.9832 L8.9416,4.9832 L8.9416,6.4424 L8.9192,6.476 L8.9416,6.476 L8.9416,6.4424 C9.396,5.7424 10.208,4.7416 12.0264,4.7416 C14.2784,4.7416 15.9672,6.2136 15.9672,9.3752 L15.9672,9.3752 Z M1.9368,0.0208 C0.7664,0.0208 0,0.7888 0,1.7992 C0,2.7872 0.744,3.5784 1.892,3.5784 L1.9144,3.5784 C3.1088,3.5784 3.8504,2.7872 3.8504,1.7992 C3.8296,0.7888 3.1096,0.0208 1.9376,0.0208 L1.9368,0.0208 Z M0.2032,15.2784 L3.6256,15.2784 L3.6256,4.9832 L0.2032,4.9832 L0.2032,15.2784 Z" id="Shape"></path>
        </g>
    </g>
</svg>