<?xml version="1.0" encoding="UTF-8"?>
<svg width="40px" height="44px" viewBox="0 0 40 44" version="1.1" xmlns="http://www.w3.org/2000/svg" xmlns:xlink="http://www.w3.org/1999/xlink">
    <!-- Generator: Sketch 59.1 (86144) - https://sketch.com -->
    <title>icon/location-big</title>
    <desc>Created with Sketch.</desc>
    <g id="icon/location-big" stroke="none" stroke-width="1" fill="none" fill-rule="evenodd">
        <g fill="#222325" fill-rule="nonzero" id="Combined-Shape">
            <path d="M9.85365854,3.95121951 C15.6097561,-1.31707317 24.3414634,-1.31707317 30.097561,3.95121951 C35.8536585,9.17073171 36.5853659,18.097561 31.8536585,24.2439024 L31.8536585,24.2439024 L27.2195122,30.2439024 L32.9268293,30.2439024 C34.0487805,30.2439024 35.0731707,30.8780488 35.5609756,31.8536585 L35.5609756,31.8536585 L39.4634146,39.6585366 C39.902439,40.5853659 39.8536585,41.6585366 39.3658537,42.4878049 C38.8292683,43.3170732 37.902439,43.8536585 36.8780488,43.8536585 L36.8780488,43.8536585 L3.17073171,43.8536585 C2.14634146,43.8536585 1.2195122,43.3658537 0.682926829,42.4878049 C0.146341463,41.6097561 0.0975609756,40.5853659 0.536585366,39.6585366 L0.536585366,39.6585366 L4.43902439,31.8536585 C4.97560976,30.8780488 5.95121951,30.2439024 7.07317073,30.2439024 L7.07317073,30.2439024 L12.7804878,30.2439024 L8.09756098,24.2439024 C3.36585366,18.097561 4.09756098,9.17073171 9.85365854,3.95121951 Z M14.2926829,32.195122 L7.07317073,32.195122 C6.68292683,32.195122 6.34146341,32.3902439 6.19512195,32.7317073 L6.19512195,32.7317073 L2.29268293,40.5365854 C2.09756098,40.9756098 2.24390244,41.3170732 2.34146341,41.4634146 C2.43902439,41.6097561 2.68292683,41.9512195 3.17073171,41.9512195 L3.17073171,41.9512195 L36.8292683,41.9512195 C37.3170732,41.9512195 37.5609756,41.6097561 37.6585366,41.4634146 C37.7560976,41.3658537 37.9512195,40.9756098 37.7073171,40.5365854 L37.7073171,40.5365854 L33.804878,32.7317073 C33.6097561,32.3902439 33.3170732,32.195122 32.9268293,32.195122 L32.9268293,32.195122 L25.7073171,32.195122 L20.8292683,38.5853659 C20.6341463,38.8292683 20.3414634,38.9756098 20.0487805,38.9756098 C19.7560976,38.9756098 19.4634146,38.8292683 19.2682927,38.5853659 L19.2682927,38.5853659 L14.2926829,32.195122 Z M19.9512195,1.95121951 C16.8292683,1.95121951 13.6585366,3.07317073 11.1707317,5.36585366 C6.19512195,9.95121951 5.51219512,17.6585366 9.65853659,23.0243902 L9.65853659,23.0243902 L20,36.3902439 L30.2439024,23.0243902 C34.3902439,17.6585366 33.7073171,9.90243902 28.7317073,5.36585366 C26.2439024,3.12195122 23.0731707,1.95121951 19.9512195,1.95121951 Z M20,4.87804878 C25.6585366,4.87804878 30.2439024,9.46341463 30.2439024,15.1219512 C30.2439024,20.7804878 25.6585366,25.3658537 20,25.3658537 C14.3414634,25.3658537 9.75609756,20.7804878 9.75609756,15.1219512 C9.75609756,9.46341463 14.3414634,4.87804878 20,4.87804878 Z M20,6.82926829 C15.4146341,6.82926829 11.7073171,10.5365854 11.7073171,15.1219512 C11.7073171,19.7073171 15.4146341,23.4146341 20,23.4146341 C24.5853659,23.4146341 28.2926829,19.7073171 28.2926829,15.1219512 C28.2926829,10.5365854 24.5853659,6.82926829 20,6.82926829 Z M20,13.6585366 C20.5365854,13.6585366 20.9756098,14.097561 20.9756098,14.6341463 L20.9756098,14.6341463 L20.9756098,19.5121951 C20.9756098,20.0487805 20.5365854,20.4878049 20,20.4878049 C19.4634146,20.4878049 19.0243902,20.0487805 19.0243902,19.5121951 L19.0243902,19.5121951 L19.0243902,14.6341463 C19.0243902,14.097561 19.4634146,13.6585366 20,13.6585366 Z M20,9.75609756 C20.5388144,9.75609756 20.9756098,10.1928929 20.9756098,10.7317073 C20.9756098,11.2705217 20.5388144,11.7073171 20,11.7073171 C19.4611856,11.7073171 19.0243902,11.2705217 19.0243902,10.7317073 C19.0243902,10.1928929 19.4611856,9.75609756 20,9.75609756 Z"></path>
        </g>
    </g>
</svg>