<?xml version="1.0" encoding="UTF-8"?>
<svg width="41px" height="40px" viewBox="0 0 41 40" version="1.1" xmlns="http://www.w3.org/2000/svg" xmlns:xlink="http://www.w3.org/1999/xlink">
    <!-- Generator: Sketch 59.1 (86144) - https://sketch.com -->
    <title>icon/mail-big</title>
    <desc>Created with Sketch.</desc>
    <g id="icon/mail-big" stroke="none" stroke-width="1" fill="none" fill-rule="evenodd">
        <g fill="#222325" fill-rule="nonzero" id="Shape">
            <path d="M39.3809524,14.8095238 L36.1904762,13.1904762 L36.1904762,2.85714286 C36.1904762,1.28571429 34.9047619,0 33.3333333,0 L7.61904762,0 C6.04761905,0 4.76190476,1.28571429 4.76190476,2.85714286 L4.76190476,13.1904762 L1.57142857,14.8095238 C0.619047619,15.2857143 0,16.2857143 0,17.3809524 L0,37.1428571 C0,38.7142857 1.28571429,40 2.85714286,40 L38.0952381,40 C39.6666667,40 40.952381,38.7142857 40.952381,37.1428571 L40.952381,17.3809524 C40.952381,16.2857143 40.3809524,15.2857143 39.3809524,14.8095238 Z M6.66666667,2.85714286 C6.66666667,2.33333333 7.0952381,1.9047619 7.61904762,1.9047619 L33.3333333,1.9047619 C33.8571429,1.9047619 34.2857143,2.33333333 34.2857143,2.85714286 L34.2857143,21 L20.4761905,32.5714286 L6.66666667,21 L6.66666667,2.85714286 Z M39.047619,37.1428571 C39.047619,37.6666667 38.6190476,38.0952381 38.0952381,38.0952381 L2.85714286,38.0952381 C2.33333333,38.0952381 1.9047619,37.6666667 1.9047619,37.1428571 L1.9047619,17.3809524 C1.9047619,17 2.0952381,16.7142857 2.42857143,16.5238095 L4.76190476,15.3333333 L4.76190476,21.4285714 C4.76190476,21.7142857 4.9047619,21.952381 5.0952381,22.1428571 L19.8571429,34.5238095 C20.047619,34.6666667 20.2380952,34.7619048 20.4761905,34.7619048 C20.7142857,34.7619048 20.9047619,34.6666667 21.0952381,34.5238095 L35.8571429,22.1428571 C36.0952381,21.952381 36.1904762,21.7142857 36.1904762,21.4285714 L36.1904762,15.2857143 L38.5238095,16.4761905 C38.8571429,16.6190476 39.047619,16.952381 39.047619,17.3333333 L39.047619,37.1428571 Z M20.4761905,17.1428571 C23.9047619,17.1428571 26.6666667,14.3809524 26.6666667,10.952381 C26.6666667,10.0952381 26.4761905,9.28571429 26.1904762,8.57142857 L27.3333333,7.42857143 C27.7142857,7.04761905 27.7142857,6.47619048 27.3333333,6.0952381 C26.952381,5.71428571 26.3809524,5.71428571 26,6.0952381 L25.1428571,6.95238095 C24.047619,5.61904762 22.3333333,4.76190476 20.4761905,4.76190476 C17.047619,4.76190476 14.2857143,7.52380952 14.2857143,10.952381 C14.2857143,14.3809524 17.047619,17.1428571 20.4761905,17.1428571 Z M20.4761905,6.66666667 C21.8095238,6.66666667 23,7.28571429 23.8095238,8.23809524 L21.1428571,10.952381 L19.7142857,9.52380952 C19.3333333,9.14285714 18.7619048,9.14285714 18.3809524,9.52380952 C18,9.9047619 18,10.4761905 18.3809524,10.8571429 L20.4761905,12.952381 C20.6666667,13.1428571 20.9047619,13.2380952 21.1428571,13.2380952 C21.3809524,13.2380952 21.6190476,13.1428571 21.8095238,12.952381 L24.6666667,10.0952381 C24.7142857,10.3809524 24.7619048,10.6666667 24.7619048,10.952381 C24.7619048,13.3333333 22.8571429,15.2380952 20.4761905,15.2380952 C18.0952381,15.2380952 16.1904762,13.3333333 16.1904762,10.952381 C16.1904762,8.57142857 18.0952381,6.66666667 20.4761905,6.66666667 Z M28.0952381,21.9047619 L12.8571429,21.9047619 C12.3333333,21.9047619 11.9047619,21.4761905 11.9047619,20.952381 C11.9047619,20.4285714 12.3333333,20 12.8571429,20 L28.0952381,20 C28.6190476,20 29.047619,20.4285714 29.047619,20.952381 C29.047619,21.4761905 28.6190476,21.9047619 28.0952381,21.9047619 Z M23.3333333,26.6666667 L17.6190476,26.6666667 C17.0952381,26.6666667 16.6666667,26.2380952 16.6666667,25.7142857 C16.6666667,25.1904762 17.0952381,24.7619048 17.6190476,24.7619048 L23.3333333,24.7619048 C23.8571429,24.7619048 24.2857143,25.1904762 24.2857143,25.7142857 C24.2857143,26.2380952 23.8571429,26.6666667 23.3333333,26.6666667 Z"></path>
        </g>
    </g>
</svg>