<?xml version="1.0" encoding="UTF-8"?>
<svg width="12px" height="20px" viewBox="0 0 12 20" version="1.1" xmlns="http://www.w3.org/2000/svg" xmlns:xlink="http://www.w3.org/1999/xlink">
    <!-- Generator: Sketch 59.1 (86144) - https://sketch.com -->
    <title>icon/phone</title>
    <desc>Created with Sketch.</desc>
    <g id="icon/phone" stroke="none" stroke-width="1" fill="none" fill-rule="evenodd">
        <g fill="#222325" fill-rule="nonzero" id="Shape">
            <path d="M3,0 L9,0 C10.6568542,0 12,1.34314575 12,3 L12,17 C12,18.6568542 10.6568542,20 9,20 L3,20 C1.34314575,20 0,18.6568542 0,17 L0,3 C0,1.34314575 1.34314575,0 3,0 Z M3,2 C2.44771525,2 2,2.44771525 2,3 L2,17 C2,17.5522847 2.44771525,18 3,18 L9,18 C9.55228475,18 10,17.5522847 10,17 L10,3 C10,2.44771525 9.55228475,2 9,2 L3,2 Z M6,17 C5.44771525,17 5,16.5522847 5,16 C5,15.4477153 5.44771525,15 6,15 C6.55228475,15 7,15.4477153 7,16 C7,16.5522847 6.55228475,17 6,17 Z"></path>
        </g>
    </g>
</svg>