<?xml version="1.0" encoding="UTF-8"?>
<svg width="40px" height="40px" viewBox="0 0 40 40" version="1.1" xmlns="http://www.w3.org/2000/svg" xmlns:xlink="http://www.w3.org/1999/xlink">
    <!-- Generator: Sketch 59.1 (86144) - https://sketch.com -->
    <title>icon/phone-big</title>
    <desc>Created with Sketch.</desc>
    <g id="icon/phone-big" stroke="none" stroke-width="1" fill="none" fill-rule="evenodd">
        <g fill="#222325" fill-rule="nonzero" id="Combined-Shape">
            <path d="M3.78984423,3.72413793 C6.28488523,1.1954023 10.2769508,1.1954023 12.7719918,3.72413793 L12.7719918,3.72413793 L14.0875589,5.05747126 C16.2650492,7.26436782 16.5825999,10.6666667 14.8587534,13.2413793 L14.8587534,13.2413793 L12.6358987,16.5057471 C12.3637124,16.8735632 12.4090768,17.3333333 12.7266275,17.6551724 L12.7266275,17.6551724 L22.1624189,27.2643678 C22.4799696,27.5402299 22.9336134,27.5862069 23.2965284,27.3563218 C24.1584517,26.7586207 25.38329,25.9310345 26.5173996,25.1034483 C29.0124406,23.3103448 32.4147692,23.6321839 34.5922595,25.8390805 L34.5922595,25.8390805 L35.9078266,27.1264368 C37.0873005,28.3678161 37.7677663,29.9770115 37.7677663,31.6781609 C37.7677663,33.3793103 37.0873005,35.0344828 35.9078266,36.2298851 L35.9078266,36.2298851 L34.0025226,38.1609195 C32.7776843,39.4022989 31.0538377,40 29.0124406,40 C23.840901,40 16.6733287,36.2298851 10.2315865,29.7011494 C1.24943884,20.5977011 -2.42507609,10.0229885 1.88454019,5.65517241 L1.88454019,5.65517241 Z M8.28091803,3.67816092 C7.10144411,3.67816092 5.92197018,4.09195402 5.06004692,5.01149425 L5.06004692,5.01149425 L3.15474288,6.94252874 C-0.292950141,10.4827586 3.51765794,20.3218391 11.5017891,28.4137931 C19.5312847,36.5057471 29.1938981,40.4137931 32.6869555,36.8735632 L32.6869555,36.8735632 L34.5922595,34.9425287 C35.4541828,34.0689655 35.9078266,32.9195402 35.8624622,31.6781609 C35.8624622,30.4367816 35.4088184,29.2873563 34.5468951,28.4137931 L34.5468951,28.4137931 L33.2766925,27.1264368 C31.7343035,25.5632184 29.3299912,25.3333333 27.515416,26.5747126 C26.335942,27.4022989 25.1564681,28.2298851 24.2945448,28.8275862 C23.2057997,29.5632184 21.7541395,29.4252874 20.8468518,28.5057471 L20.8468518,28.5057471 L11.4110604,18.9425287 C10.5037727,18.0229885 10.3676796,16.5517241 11.0935097,15.4482759 L11.0935097,15.4482759 L13.3163644,12.183908 C14.5412027,10.3908046 14.3143808,7.90804598 12.7719918,6.34482759 L12.7719918,6.34482759 L11.5017891,5.01149425 C10.5945015,4.13793103 9.46039196,3.67816092 8.28091803,3.67816092 Z M21.8448682,11.0344828 C25.3379256,11.0344828 28.1958817,13.9310345 28.1958817,17.4712644 C28.1958817,17.9770115 27.7876022,18.3908046 27.288594,18.3908046 C26.7895858,18.3908046 26.3813064,17.9770115 26.3813064,17.4712644 C26.3813064,14.9425287 24.3399092,12.8735632 21.8448682,12.8735632 C21.34586,12.8735632 20.9375806,12.4597701 20.9375806,11.954023 C20.9375806,11.4482759 21.34586,11.0344828 21.8448682,11.0344828 Z M21.8448682,5.51724138 C28.3319748,5.51724138 33.6396075,10.8965517 33.6396075,17.4712644 C33.6396075,17.9770115 33.2313281,18.3908046 32.7323199,18.3908046 C32.2333117,18.3908046 31.8250322,17.9770115 31.8250322,17.4712644 C31.8250322,11.908046 27.3339584,7.35632184 21.8448682,7.35632184 C21.34586,7.35632184 20.9375806,6.94252874 20.9375806,6.43678161 C20.9375806,5.93103448 21.34586,5.51724138 21.8448682,5.51724138 Z M21.8448682,2.66453526e-14 C31.3713884,2.66453526e-14 39.0833333,7.81609195 39.0833333,17.4712644 C39.0833333,17.9770115 38.6750539,18.3908046 38.1760457,18.3908046 C37.6770375,18.3908046 37.2687581,17.9770115 37.2687581,17.4712644 C37.2687581,8.87356322 30.3280076,1.83908046 21.8448682,1.83908046 C21.34586,1.83908046 20.9375806,1.42528736 20.9375806,0.91954023 C20.9375806,0.413793103 21.34586,2.66453526e-14 21.8448682,2.66453526e-14 Z"></path>
        </g>
    </g>
</svg>