<?xml version="1.0" encoding="UTF-8"?>
<svg width="24px" height="24px" viewBox="0 0 24 24" version="1.1" xmlns="http://www.w3.org/2000/svg" xmlns:xlink="http://www.w3.org/1999/xlink">
    <!-- Generator: Sketch 59.1 (86144) - https://sketch.com -->
    <title>icon/phone-mobile</title>
    <desc>Created with Sketch.</desc>
    <g id="icon/phone-mobile" stroke="none" stroke-width="1" fill="none" fill-rule="evenodd">
        <g id="icon/phone-big" fill="#222325" fill-rule="nonzero">
            <path d="M2.27390654,2.23448276 C3.77093114,0.717241379 6.1661705,0.717241379 7.6631951,2.23448276 L7.6631951,2.23448276 L8.45253535,3.03448276 C9.75902955,4.35862069 9.94955995,6.4 8.91525204,7.94482759 L8.91525204,7.94482759 L7.58153922,9.90344828 C7.41822744,10.1241379 7.44544607,10.4 7.63597648,10.5931034 L7.63597648,10.5931034 L13.2974513,16.3586207 C13.4879817,16.5241379 13.760168,16.5517241 13.9779171,16.4137931 C14.495071,16.0551724 15.229974,15.5586207 15.9104397,15.062069 C17.4074643,13.9862069 19.4488615,14.1793103 20.7553557,15.5034483 L20.7553557,15.5034483 L21.544696,16.2758621 C22.2523803,17.0206897 22.6606598,17.9862069 22.6606598,19.0068966 C22.6606598,20.0275862 22.2523803,21.0206897 21.544696,21.737931 L21.544696,21.737931 L20.4015135,22.8965517 C19.6666106,23.6413793 18.6323026,24 17.4074643,24 C14.3045406,24 10.0039972,21.737931 6.13895187,17.8206897 C0.749663306,12.3586207 -1.45504565,6.0137931 1.13072411,3.39310345 L1.13072411,3.39310345 Z M4.96855082,2.20689655 C4.26086646,2.20689655 3.55318211,2.45517241 3.03602815,3.00689655 L3.03602815,3.00689655 L1.89284573,4.16551724 C-0.175770085,6.28965517 2.11059476,12.1931034 6.90107349,17.0482759 C11.7187708,21.9034483 17.5163388,24.2482759 19.6121733,22.1241379 L19.6121733,22.1241379 L20.7553557,20.9655172 C21.2725097,20.4413793 21.544696,19.7517241 21.5174773,19.0068966 C21.5174773,18.262069 21.245291,17.5724138 20.7281371,17.0482759 L20.7281371,17.0482759 L19.9660155,16.2758621 C19.0405821,15.337931 17.5979947,15.2 16.5092496,15.9448276 C15.8015652,16.4413793 15.0938809,16.937931 14.5767269,17.2965517 C13.9234798,17.737931 13.0524837,17.6551724 12.5081111,17.1034483 L12.5081111,17.1034483 L6.84663623,11.3655172 C6.30226365,10.8137931 6.22060776,9.93103448 6.65610583,9.26896552 L6.65610583,9.26896552 L7.98981865,7.31034483 C8.72472164,6.23448276 8.5886285,4.74482759 7.6631951,3.80689655 L7.6631951,3.80689655 L6.90107349,3.00689655 C6.35670091,2.48275862 5.67623518,2.20689655 4.96855082,2.20689655 Z M13.1069209,6.62068966 C15.2027554,6.62068966 16.917529,8.35862069 16.917529,10.4827586 C16.917529,10.7862069 16.6725613,11.0344828 16.3731564,11.0344828 C16.0737515,11.0344828 15.8287838,10.7862069 15.8287838,10.4827586 C15.8287838,8.96551724 14.6039455,7.72413793 13.1069209,7.72413793 C12.807516,7.72413793 12.5625483,7.47586207 12.5625483,7.17241379 C12.5625483,6.86896552 12.807516,6.62068966 13.1069209,6.62068966 Z M13.1069209,3.31034483 C16.9991849,3.31034483 20.1837645,6.53793103 20.1837645,10.4827586 C20.1837645,10.7862069 19.9387968,11.0344828 19.6393919,11.0344828 C19.339987,11.0344828 19.0950193,10.7862069 19.0950193,10.4827586 C19.0950193,7.14482759 16.4003751,4.4137931 13.1069209,4.4137931 C12.807516,4.4137931 12.5625483,4.16551724 12.5625483,3.86206897 C12.5625483,3.55862069 12.807516,3.31034483 13.1069209,3.31034483 Z M13.1069209,2.66453526e-14 C18.822833,2.66453526e-14 23.45,4.68965517 23.45,10.4827586 C23.45,10.7862069 23.2050323,11.0344828 22.9056274,11.0344828 C22.6062225,11.0344828 22.3612548,10.7862069 22.3612548,10.4827586 C22.3612548,5.32413793 18.1968046,1.10344828 13.1069209,1.10344828 C12.807516,1.10344828 12.5625483,0.855172414 12.5625483,0.551724138 C12.5625483,0.248275862 12.807516,2.66453526e-14 13.1069209,2.66453526e-14 Z" id="Combined-Shape"></path>
        </g>
    </g>
</svg>