<?xml version="1.0" encoding="UTF-8"?>
<svg width="16px" height="17px" viewBox="0 0 16 17" version="1.1" xmlns="http://www.w3.org/2000/svg" xmlns:xlink="http://www.w3.org/1999/xlink">
    <!-- Generator: Sketch 59.1 (86144) - https://sketch.com -->
    <title>icon/whatsapp</title>
    <desc>Created with Sketch.</desc>
    <g id="icon/whatsapp" stroke="none" stroke-width="1" fill="none" fill-rule="evenodd">
        <g fill="#222325" fill-rule="nonzero" id="Combined-Shape">
            <path d="M7.6128,0.8088 C12.2808,0.588 16.12,4.3528 15.9744,8.9728 C15.8392,13.2808 12.22,16.7032 7.8784,16.6368 C6.68875862,16.6203674 5.51782495,16.3382938 4.4512,15.8112 L4.4512,15.8112 L0.424,16.7584 C0.321152862,16.7831923 0.212766404,16.7537528 0.13659445,16.680336 C0.0604224966,16.6069192 0.0270117338,16.4996903 0.048,16.396 L0.048,16.396 L0.8944,12.3152 C0.326018428,11.2101688 0.0285044772,9.98583718 0.026363455,8.7432 C0.0136,4.5216 3.3648,1.0096 7.6128,0.8096 L7.6128,0.8096 Z M8.0024,2.5192 C6.34860019,2.51971251 4.76175655,3.17256069 3.5864,4.336 C2.4072,5.5064 1.75757113,7.064 1.75757113,8.72 C1.75458826,9.69872748 1.98727935,10.6637918 2.436,11.5336 L2.436,11.5336 L2.7128,12.0712 L2.1928,14.576 L4.6624,13.9952 L5.2232,14.2728 C6.08694445,14.7008547 7.03841005,14.9221513 8.0024,14.9192341 C9.65722151,14.9246715 11.2461665,14.2712466 12.4184,13.1032 L12.4184,13.1032 C13.588,11.9432 14.2480124,10.3608 14.2480124,8.7192 C14.2513138,7.07152317 13.5920006,5.49170836 12.4184,4.3352 C11.2392,3.164 9.6712,2.5192 8.0024,2.5192 Z M5.39828911,4.90196369 L5.50497643,4.91598249 C5.68180021,4.95621972 5.82951697,5.07705804 5.904,5.2424 L5.904,5.2424 L6.5536,6.7016 C6.63908635,6.89347197 6.61170147,7.11685877 6.4824,7.2824 L6.4824,7.2824 L6.1528,7.7064 C6.01308307,7.8843865 5.99535924,8.12935506 6.108,8.3256 C6.5008,9.0048 8.0384,10.3616 8.7688,10.6552 C8.97998465,10.7394157 9.22106816,10.688993 9.3808,10.5272 L9.3808,10.5272 L9.7584,10.1448 C9.90709654,9.99476274 10.1257599,9.93772014 10.3288,9.996 L10.3288,9.996 L11.8736,10.436 C12.0479235,10.4847207 12.1887764,10.6132879 12.2531605,10.7824538 C12.3175445,10.9516198 12.2978169,11.1413034 12.2,11.2936 C11.8984,11.7664 11.4184,12.3448 10.8184,12.4888 C9.7616,12.744 8.1368,12.4952 6.1088,10.616 C4.3536,8.9888 3.8896,7.6344 3.9992,6.56 C4.0608,5.9496 4.5728,5.4 5.004,5.0376 C5.14269339,4.92076752 5.32815264,4.87574525 5.50497643,4.91598249 Z"></path>
        </g>
    </g>
</svg>