<?xml version="1.0" standalone="no"?>
<!DOCTYPE svg PUBLIC "-//W3C//DTD SVG 20010904//EN"
 "http://www.w3.org/TR/2001/REC-SVG-20010904/DTD/svg10.dtd">
<svg version="1.0" xmlns="http://www.w3.org/2000/svg"
 width="120.000000pt" height="120.000000pt" viewBox="0 0 120.000000 120.000000"
 preserveAspectRatio="xMidYMid meet">
<metadata>
Created by potrace 1.11, written by Peter Selinger 2001-2013
</metadata>
<g transform="translate(0.000000,120.000000) scale(0.100000,-0.100000)"
fill="#000000" stroke="none">
<path d="M451 1164 c-30 -8 -84 -29 -120 -46 -90 -44 -215 -169 -259 -259
-108 -223 -72 -484 92 -665 l55 -61 -46 -33 c-25 -18 -69 -46 -97 -61 -49 -27
-50 -29 -21 -29 41 0 169 85 230 152 58 65 98 133 127 218 33 95 31 262 -5
423 -32 142 -34 210 -8 253 25 41 78 81 138 104 l48 19 -40 0 c-22 0 -64 -7
-94 -15z"/>
<path d="M713 1146 c-26 -13 -63 -40 -82 -61 -31 -36 -33 -42 -29 -99 3 -51
17 -88 86 -232 45 -95 95 -212 111 -260 54 -161 63 -317 27 -438 l-14 -47 26
3 c19 2 28 11 34 33 5 20 19 36 42 49 50 27 139 115 179 177 192 301 83 690
-239 851 l-92 46 -49 -22z"/>
<path d="M605 1150 c-3 -6 1 -7 9 -4 18 7 21 14 7 14 -6 0 -13 -4 -16 -10z"/>
<path d="M515 1090 c-10 -11 -16 -22 -13 -25 2 -3 14 6 26 20 26 30 13 34 -13
5z"/>
<path d="M474 1004 c-4 -14 -2 -30 5 -37 8 -8 11 -1 11 26 0 43 -7 48 -16 11z"/>
<path d="M490 908 c0 -23 21 -78 30 -78 4 0 3 18 -4 39 -12 43 -26 63 -26 39z"/>
<path d="M540 754 c0 -21 33 -114 41 -114 12 0 12 5 -8 67 -9 29 -20 53 -25
53 -4 0 -8 -3 -8 -6z"/>
<path d="M600 458 c3 -52 9 -83 18 -86 8 -3 12 12 12 51 0 70 -10 117 -24 117
-8 0 -9 -25 -6 -82z"/>
<path d="M569 223 c-25 -71 -37 -92 -81 -150 l-47 -63 27 0 c21 0 34 10 59 48
43 64 86 159 79 177 -9 23 -26 17 -37 -12z"/>
</g>
</svg>
